<svg id="Layer_1" data-name="Layer 1" xmlns="http://www.w3.org/2000/svg" viewBox="0 0 669.8647 120.471">
  <g>
    <path id="logoMark" d="M92.7145,6.396A61.7709,61.7709,0,0,0,76.7885,0l-15.13,28.741L46.5555.058a61.7114,61.7114,0,0,0-28.959,16.736l15.405,24.433L11.42,40.385l-8.166-.318a60.971,60.971,0,0,0-1.865,6.702,61.6856,61.6856,0,0,0-.05,25.795,60.8123,60.8123,0,0,0,1.796,6.702l8.035-.316,18.322-.713-9.818,15.572-4.335,6.875a60.8369,60.8369,0,0,0,33.87,19.772l3.786-7.191,8.663-16.456,8.697,16.517,3.763,7.145a62.332,62.332,0,0,0,6.714-1.772,61.9125,61.9125,0,0,0,27.294-17.793l-4.365-6.917L91.9485,75.261l29.388,1.148a61.6891,61.6891,0,0,0-.14-33.483L88.44,44.203l17.394-27.591A61.7653,61.7653,0,0,0,92.7145,6.396m6.314,92.771a54.1026,54.1026,0,0,1-21.866,12.572L65.0785,88.787l-3.423-6.495-3.418,6.493L46.18,111.692a52.2463,52.2463,0,0,1-21.773-12.723l13.744-21.781,3.915-6.207-7.337.284-25.533.99a54.0449,54.0449,0,0,1,.088-25.181L54.68,48.845a24.5692,24.5692,0,0,1,19.839,11.454Z" style="fill: #fff"/>
    <path id="fullLogo" d="M455.5455,41.4493c-10.846-3.939-22.252.731-25.343,11.311V42.0613h-18.375v60.104h18.375V72.1133c0-9.844,7.348-14.664,15.702-12.496Z" style="fill: #fff"/>
    <path id="fullLogo-2" data-name="fullLogo" d="M250.1293,79.3254q3.1845,8.415,14.701,8.415,7.47,0,11.76-4.568l14.701,8.293q-9.0675,12.3825-26.706,12.382-15.435,0-24.685-9.015t-9.249-22.719q0-13.5825,9.127-22.66,9.1245-9.075,23.46-9.075,13.35,0,22.233,9.075,8.8815,9.078,8.883,22.66a33.6858,33.6858,0,0,1-.736,7.212Zm-.367-13.464H276.1q-2.6955-9.4935-12.985-9.496-10.6575,0-13.353,9.496" style="fill: #fff"/>
    <path id="fullLogo-3" data-name="fullLogo" d="M336.1232,33.646q-11.3925-.96-11.393,8.415h11.393v17.31H324.73v42.794h-18.376V59.371h-8.208V42.061h8.208c0-17.559,17.118-31.749,38.665-25.181Z" style="fill: #fff"/>
    <path id="fullLogo-4" data-name="fullLogo" d="M359.4809,79.3254q3.183,8.415,14.7,8.415,7.4715,0,11.76-4.568l14.7,8.293q-9.066,12.3825-26.705,12.382-15.435,0-24.684-9.015t-9.249-22.719q0-13.5825,9.126-22.66,9.126-9.075,23.461-9.075,13.3485,0,22.233,9.075,8.8815,9.078,8.882,22.66a33.7513,33.7513,0,0,1-.735,7.212Zm-.367-13.464h26.338q-2.6955-9.4935-12.986-9.496-10.659,0-13.352,9.496" style="fill: #fff"/>
    <path id="fullLogo-5" data-name="fullLogo" d="M474.7994,59.6114q0,1.803,3.123,2.945,3.123,1.1445,7.534,2.284a69.2992,69.2992,0,0,1,8.821,2.945,17.7869,17.7869,0,0,1,7.534,5.951,16.7892,16.7892,0,0,1,3.124,10.397q0,9.738-7.351,14.726-7.35,4.986-18.131,4.988-19.3575,0-26.338-14.303l15.926-8.897q2.45,7.095,10.412,7.093,6.615,0,6.616-3.727,0-1.803-3.124-3.006a71.1549,71.1549,0,0,0-7.534-2.343,63.3955,63.3955,0,0,1-8.821-3.006,18.8006,18.8006,0,0,1-7.533-5.829,15.2507,15.2507,0,0,1-3.124-9.738q0-9.3765,6.921-14.544t17.091-5.169a29.1361,29.1361,0,0,1,13.842,3.306,25.6383,25.6383,0,0,1,10.045,9.556l-15.68,8.294q-2.94-5.2875-8.207-5.289-5.148,0-5.146,3.366" style="fill: #fff"/>
    <path id="fullLogo-6" data-name="fullLogo" d="M594.28,94.6511a33.4343,33.4343,0,0,1-46.0611,0,30.2556,30.2556,0,0,1-9.4339-22.539,30.2565,30.2565,0,0,1,9.4339-22.538,33.437,33.437,0,0,1,46.0611,0,30.2632,30.2632,0,0,1,9.433,22.538,30.2622,30.2622,0,0,1-9.433,22.539m-33.076-12.32a14.0925,14.0925,0,0,0,24.134-10.219,14.0924,14.0924,0,1,0-28.177,0,13.6925,13.6925,0,0,0,4.043,10.219" style="fill: #fff"/>
    <path id="fullLogo-7" data-name="fullLogo" d="M646.9567,40.378a22.1,22.1,0,0,1,16.354,6.611q6.5535,6.6135,6.554,18.272v36.904h-18.376V67.905q0-5.2875-3.001-8.113a10.7309,10.7309,0,0,0-7.657-2.826,11.1255,11.1255,0,0,0-8.329,3.126q-3.063,3.1275-3.064,9.256v32.817h-18.375V42.061h18.375v5.65q5.514-7.3305,17.519-7.333" style="fill: #fff"/>
    <path id="fullLogo-8" data-name="fullLogo" d="M522.2477,42.563a23.6021,23.6021,0,0,1-9.188-1.797v61.399h18.376V40.766a23.6057,23.6057,0,0,1-9.188,1.797" style="fill: #fff"/>
    <path id="fullLogo-9" data-name="fullLogo" d="M530.54,33.3755a11.8213,11.8213,0,0,1-16.584,0,10.9865,10.9865,0,0,1-3.46-8.136,10.9966,10.9966,0,0,1,3.46-8.137,11.8238,11.8238,0,0,1,16.584,0,11.2946,11.2946,0,0,1,0,16.273" style="fill: #fff"/>
    <path id="fullLogo-10" data-name="fullLogo" d="M208.3653,102.1654l-15.892-27.649h-16.562v27.649h-19.234V18.0184h41.11a27.8344,27.8344,0,0,1,20.436,8.414,27.8369,27.8369,0,0,1,8.415,20.436,25.5951,25.5951,0,0,1-4.268,14.244,29.1981,29.1981,0,0,1-11.24,10.159l17.911,30.894Zm-32.454-66.116v21.638h21.876a8.8363,8.8363,0,0,0,6.792-3.125,11.063,11.063,0,0,0,2.825-7.694,11.07,11.07,0,0,0-2.825-7.694,8.8429,8.8429,0,0,0-6.792-3.125Z" style="fill: #fff"/>
  </g>
</svg>
