<svg id="Layer_1" data-name="Layer 1" xmlns="http://www.w3.org/2000/svg" viewBox="0 0 124.4195 120.471">
  <path id="logoMark" d="M92.7145,6.396A61.7709,61.7709,0,0,0,76.7885,0l-15.13,28.741L46.5555.058a61.7114,61.7114,0,0,0-28.959,16.736l15.405,24.433L11.42,40.385l-8.166-.318a60.971,60.971,0,0,0-1.865,6.702,61.6856,61.6856,0,0,0-.05,25.795,60.8123,60.8123,0,0,0,1.796,6.702l8.035-.316,18.322-.713-9.818,15.572-4.335,6.875a60.8369,60.8369,0,0,0,33.87,19.772l3.786-7.191,8.663-16.456,8.697,16.517,3.763,7.145a62.332,62.332,0,0,0,6.714-1.772,61.9125,61.9125,0,0,0,27.294-17.793l-4.365-6.917L91.9485,75.261l29.388,1.148a61.6891,61.6891,0,0,0-.14-33.483L88.44,44.203l17.394-27.591A61.7653,61.7653,0,0,0,92.7145,6.396m6.314,92.771a54.1026,54.1026,0,0,1-21.866,12.572L65.0785,88.787l-3.423-6.495-3.418,6.493L46.18,111.692a52.2463,52.2463,0,0,1-21.773-12.723l13.744-21.781,3.915-6.207-7.337.284-25.533.99a54.0449,54.0449,0,0,1,.088-25.181L54.68,48.845a24.5692,24.5692,0,0,1,19.839,11.454Z" style="fill: #fff"/>
</svg>